<?xml version="1.0" encoding="UTF-8" standalone="no"?>
<svg width="349px" height="16px" viewBox="0 0 349 16" version="1.1" xmlns="http://www.w3.org/2000/svg" xmlns:xlink="http://www.w3.org/1999/xlink" xmlns:sketch="http://www.bohemiancoding.com/sketch/ns">
    <!-- Generator: Sketch 3.0.4 (8053) - http://www.bohemiancoding.com/sketch -->
    <title>logo_intoOkavango</title>
    <desc>Created with Sketch.</desc>
    <defs></defs>
    <g id="Welcome" stroke="none" stroke-width="1" fill="none" fill-rule="evenodd" sketch:type="MSPage">
        <g id="ABOUT" sketch:type="MSArtboardGroup" transform="translate(-77.000000, -107.000000)" fill="#FFFFFF">
            <g id="logo_intoOkavango" sketch:type="MSLayerGroup" transform="translate(77.000000, 107.000000)">
                <g id="Group" sketch:type="MSShapeGroup">
                    <path d="M0.0843257989,0.264761303 L3.47721512,0.264761303 L3.47721512,15.6445175 L0.0843257989,15.6445175 L0.0843257989,0.264761303 L0.0843257989,0.264761303 Z" id="Shape"></path>
                    <path d="M13.6566991,0.264761303 L16.7851863,0.264761303 L24.0116352,9.73431823 L24.0116352,0.264761303 L27.3604575,0.264761303 L27.3604575,15.6445175 L24.474339,15.6445175 L17.0055214,5.86733834 L17.0055214,15.6445175 L13.6566991,15.6445175 L13.6566991,0.264761303 L13.6566991,0.264761303 Z" id="Shape"></path>
                    <path d="M40.977986,3.38465858 L36.2851193,3.38465858 L36.2851193,0.264761303 L49.063742,0.264761303 L49.063742,3.38465858 L44.3708753,3.38465858 L44.3708753,15.6445175 L40.977986,15.6445175 L40.977986,3.38465858 L40.977986,3.38465858 Z" id="Shape"></path>
                    <path d="M56.6438153,7.99844981 L56.6438153,7.95450378 C56.6438153,3.58214447 60.1028051,0.00108508731 64.8617724,0.00108508731 C69.6204677,0.00108508731 73.0353905,3.53819844 73.0353905,7.91055774 L73.0353905,7.95450378 C73.0353905,12.3265918 69.5764006,15.9079225 64.8177054,15.9079225 C60.0587381,15.9081937 56.6438153,12.3708091 56.6438153,7.99844981 L56.6438153,7.99844981 Z M69.4882666,7.99844981 L69.4882666,7.95450378 C69.4882666,5.31774162 67.5495892,3.12098237 64.8177054,3.12098237 C62.0855495,3.12098237 60.1909392,5.27406686 60.1909392,7.91055774 L60.1909392,7.95450378 C60.1909392,10.5909947 62.1296165,12.7880252 64.8617724,12.7880252 C67.5936563,12.7882965 69.4882666,10.6349407 69.4882666,7.99844981 L69.4882666,7.99844981 Z" id="Shape"></path>
                    <path d="M98.9035534,3.38465858 L94.2106867,3.38465858 L94.2106867,0.264761303 L106.989309,0.264761303 L106.989309,3.38465858 L102.296443,3.38465858 L102.296443,15.6445175 L98.9035534,15.6445175 L98.9035534,3.38465858 L98.9035534,3.38465858 Z" id="Shape"></path>
                    <path d="M115.913427,0.264761303 L119.306316,0.264761303 L119.306316,6.35074474 L125.563563,6.35074474 L125.563563,0.264761303 L128.956452,0.264761303 L128.956452,15.6445175 L125.563563,15.6445175 L125.563563,9.47064202 L119.306316,9.47064202 L119.306316,15.6445175 L115.913427,15.6445175 L115.913427,0.264761303 L115.913427,0.264761303 Z" id="Shape"></path>
                    <path d="M138.982518,0.264761303 L150.615398,0.264761303 L150.615398,3.27479349 L142.353373,3.27479349 L142.353373,6.39469077 L149.624161,6.39469077 L149.624161,9.40499424 L142.353373,9.40499424 L142.353373,12.6347566 L150.725293,12.6347566 L150.725293,15.6447888 L138.982518,15.6447888 L138.982518,0.264761303 L138.982518,0.264761303 Z" id="Shape"></path>
                    <path d="M172.318682,7.99844981 L172.318682,7.95450378 C172.318682,3.58214447 175.777672,0.00108508731 180.536367,0.00108508731 C185.295334,0.00108508731 188.710257,3.53819844 188.710257,7.91055774 L188.710257,7.95450378 C188.710257,12.3265918 185.251267,15.9079225 180.492572,15.9079225 C175.733605,15.9081937 172.318682,12.3708091 172.318682,7.99844981 L172.318682,7.99844981 Z M185.163133,7.72717799 L185.163133,7.68323195 C185.163133,5.04646979 183.224456,2.84971054 180.492572,2.84971054 C177.760416,2.84971054 175.865806,5.00279503 175.865806,7.63928592 L175.865806,7.68323195 C175.865806,10.3197228 180.536367,14.6248067 180.536367,14.6248067 C180.536367,14.6248067 185.163133,10.3636689 185.163133,7.72717799 L185.163133,7.72717799 Z" id="Shape"></path>
                    <path d="M198.053828,0.264761303 L201.446717,0.264761303 L201.446717,6.98796226 L207.703691,0.264761303 L211.801653,0.264761303 L205.522645,6.7902051 L212.088089,15.6447888 L208.012433,15.6447888 L203.231432,9.09737198 L201.446717,10.9428342 L201.446717,15.6447888 L198.053828,15.6447888 L198.053828,0.264761303 L198.053828,0.264761303 Z" id="Shape"></path>
                    <path d="M225.309014,0.154624941 L228.437501,0.154624941 L235.047012,15.6445175 L231.499888,15.6445175 L230.089743,12.195025 L223.568366,12.195025 L222.158221,15.6445175 L218.699231,15.6445175 L225.309014,0.154624941 L225.309014,0.154624941 Z M228.878171,9.20669453 L226.829055,4.21936199 L224.78021,9.20669453 L228.878171,9.20669453 L228.878171,9.20669453 Z" id="Shape"></path>
                    <path d="M240.226248,0.264761303 L243.971673,0.264761303 L248.003263,11.0966453 L252.035124,0.264761303 L255.692415,0.264761303 L249.457203,15.7546539 L246.460917,15.7546539 L240.226248,0.264761303 L240.226248,0.264761303 Z" id="Shape"></path>
                    <path d="M267.481162,0.154624941 L270.609649,0.154624941 L277.21916,15.6445175 L273.672036,15.6445175 L272.261891,12.195025 L265.740514,12.195025 L264.330369,15.6445175 L260.871108,15.6445175 L267.481162,0.154624941 L267.481162,0.154624941 Z M271.05032,9.20669453 L269.001203,4.21936199 L266.952358,9.20669453 L271.05032,9.20669453 L271.05032,9.20669453 Z" id="Shape"></path>
                    <path d="M285.923486,0.264761303 L289.051973,0.264761303 L296.27815,9.73431823 L296.27815,0.264761303 L299.627245,0.264761303 L299.627245,15.6445175 L296.741126,15.6445175 L289.272309,5.86733834 L289.272309,15.6445175 L285.923486,15.6445175 L285.923486,0.264761303 L285.923486,0.264761303 Z" id="Shape"></path>
                    <path d="M308.970815,7.99844981 L308.970815,7.95450378 C308.970815,3.58214447 312.385738,0.00108508731 317.056571,0.00108508731 C319.832522,0.00108508731 321.506797,0.747896427 323.115244,2.11022354 L320.978265,4.68079537 C319.788455,3.69200956 318.730846,3.12098237 316.946404,3.12098237 C314.478922,3.12098237 312.518211,5.29603988 312.518211,7.91055774 L312.518211,7.95450378 C312.518211,10.7667788 314.456889,12.8319712 317.188772,12.8319712 C318.422649,12.8319712 319.524325,12.524349 320.38336,11.9093757 L320.38336,9.71207394 L316.968437,9.71207394 L316.968437,6.78993383 L323.666082,6.78993383 L323.666082,13.4691887 C322.079669,14.8092716 319.898623,15.9079225 317.078605,15.9079225 C312.275299,15.9081937 308.970815,12.5465933 308.970815,7.99844981 L308.970815,7.99844981 Z" id="Shape"></path>
                    <path d="M332.56871,7.99844981 L332.56871,7.95450378 C332.56871,3.58214447 336.0277,0.00108508731 340.786395,0.00108508731 C345.545362,0.00108508731 348.960285,3.53819844 348.960285,7.91055774 L348.960285,7.95450378 C348.960285,12.3265918 345.501295,15.9079225 340.7426,15.9079225 C335.983361,15.9081937 332.56871,12.3708091 332.56871,7.99844981 L332.56871,7.99844981 Z M345.412889,7.99844981 L345.412889,7.95450378 C345.412889,5.31774162 343.474212,3.12098237 340.742328,3.12098237 C338.010172,3.12098237 336.115562,5.27406686 336.115562,7.91055774 L336.115562,7.95450378 C336.115562,10.5909947 338.054239,12.7880252 340.786123,12.7880252 C343.518551,12.7882965 345.412889,10.6349407 345.412889,7.99844981 L345.412889,7.99844981 Z" id="Shape"></path>
                    <ellipse id="Oval" cx="180.509709" cy="8.02774717" rx="1.52140062" ry="1.51722333"></ellipse>
                </g>
            </g>
        </g>
    </g>
</svg>