<?xml version="1.0" encoding="utf-8"?>
<!-- Generator: Adobe Illustrator 16.0.0, SVG Export Plug-In . SVG Version: 6.00 Build 0)  -->
<!DOCTYPE svg PUBLIC "-//W3C//DTD SVG 1.1//EN" "http://www.w3.org/Graphics/SVG/1.1/DTD/svg11.dtd">
<svg version="1.1" id="Calque_1" xmlns="http://www.w3.org/2000/svg" xmlns:xlink="http://www.w3.org/1999/xlink" x="0px" y="0px"
	 width="100%" height="100%" viewBox="0 329.5 1280 61" enable-background="new 0 329.5 1280 61" xml:space="preserve">
<g>
	<path class="logotransition" fill="white" d="M-1.69,331.976h12.473v56.695H-1.69V331.976z"/>
	<path class="logotransition" fill="white" d="M48.205,331.976h11.501l26.566,34.908v-34.908h12.311v56.695h-10.61l-27.457-36.042v36.042H48.205V331.976z"/>
	<path class="logotransition" fill="white" d="M148.644,343.477h-17.252v-11.501h46.977v11.501h-17.252v45.194h-12.473V343.477z"/>
	<path class="logotransition" fill="white" d="M206.235,360.485v-0.162c0-16.118,12.716-29.319,30.211-29.319c17.494,0,30.048,13.039,30.048,29.157v0.162
		c0,16.117-12.716,29.319-30.21,29.319C218.789,389.643,206.235,376.603,206.235,360.485z M253.454,360.485v-0.162
		c0-9.72-7.127-17.818-17.17-17.818c-10.044,0-17.009,7.937-17.009,17.656v0.162c0,9.719,7.127,17.818,17.171,17.818
		C246.489,378.142,253.454,370.204,253.454,360.485z"/>
	<path class="logotransition" fill="white" d="M361.591,343.477h-17.252v-11.501h46.977v11.501h-17.252v45.194h-12.473V343.477z"/>
	<path class="logotransition" fill="white" d="M424.123,331.976h12.473v22.435h23.003v-22.435h12.473v56.695h-12.473v-22.759h-23.003v22.759h-12.473V331.976z"/>
	<path class="logotransition" fill="white" d="M508.93,331.976h42.765v11.096h-30.373v11.501h26.729v11.097h-26.729v11.906h30.777v11.096H508.93V331.976z"/>
	<path class="logotransition" fill="white" d="M631.481,360.485v-0.162c0-16.118,12.716-29.319,30.21-29.319c17.495,0,30.049,13.039,30.049,29.157v0.162
		c0,16.117-12.716,29.319-30.21,29.319C644.035,389.643,631.481,376.603,631.481,360.485z M678.7,359.485v-0.162
		c0-9.72-7.127-17.818-17.17-17.818c-10.044,0-17.009,7.937-17.009,17.656v0.162c0,9.719,17.17,25.589,17.17,25.589
		S678.7,369.204,678.7,359.485z"/>
	<path class="logotransition" fill="white" d="M726.089,331.976h12.473v24.784l23.002-24.784h15.065l-23.083,24.055l24.136,32.641h-14.983l-17.576-24.136l-6.561,6.803
		v17.333h-12.473V331.976z"/>
	<path class="logotransition" fill="white" d="M826.285,331.57h11.501l24.298,57.101h-13.04l-5.184-12.716h-23.974l-5.184,12.716h-12.716L826.285,331.57z
		 M839.406,364.939l-7.533-18.385l-7.532,18.385H839.406z"/>
	<path class="logotransition" fill="white" d="M881.124,331.976h13.769l14.821,39.93l14.822-39.93h13.445l-22.922,57.101h-11.015L881.124,331.976z"/>
	<path class="logotransition" fill="white" d="M981.319,331.57h11.501l24.298,57.101h-13.04l-5.184-12.716h-23.974l-5.184,12.716h-12.717L981.319,331.57z
		 M994.44,364.939l-7.533-18.385l-7.532,18.385H994.44z"/>
	<path class="logotransition" fill="white" d="M1049.117,331.976h11.501l26.565,34.908v-34.908h12.312v56.695h-10.61l-27.457-36.042v36.042h-12.311V331.976z"/>
	<path class="logotransition" fill="white" d="M1133.844,360.485v-0.162c0-16.118,12.554-29.319,29.725-29.319c10.205,0,16.36,2.753,22.273,7.775l-7.856,9.476
		c-4.374-3.645-8.262-5.75-14.822-5.75c-9.071,0-16.279,8.018-16.279,17.656v0.162c0,10.367,7.127,17.98,17.17,17.98
		c4.536,0,8.586-1.134,11.744-3.401v-8.1h-12.554V356.03h24.622v24.622c-5.832,4.94-13.85,8.99-24.217,8.99
		C1145.992,389.643,1133.844,377.251,1133.844,360.485z"/>
	<path class="logotransition" fill="white" d="M1220.595,360.485v-0.162c0-16.118,12.716-29.319,30.21-29.319c17.495,0,30.049,13.039,30.049,29.157v0.162
		c0,16.117-12.716,29.319-30.21,29.319C1233.148,389.643,1220.595,376.603,1220.595,360.485z M1267.813,360.485v-0.162
		c0-9.72-7.127-17.818-17.17-17.818c-10.044,0-17.009,7.937-17.009,17.656v0.162c0,9.719,7.127,17.818,17.17,17.818
		C1260.849,378.142,1267.813,370.204,1267.813,360.485z"/>
	<circle class="logotransition" fill="white" cx="661.947" cy="360.176" r="5.593"/>
</g>
</svg>
