<?xml version="1.0" encoding="UTF-8" standalone="no"?>
<svg width="18px" height="17px" viewBox="0 0 18 17" version="1.1" xmlns="http://www.w3.org/2000/svg" xmlns:xlink="http://www.w3.org/1999/xlink" xmlns:sketch="http://www.bohemiancoding.com/sketch/ns">
    <!-- Generator: Sketch 3.0.4 (8053) - http://www.bohemiancoding.com/sketch -->
    <title>Shape 3</title>
    <desc>Created with Sketch.</desc>
    <defs></defs>
    <g id="Welcome" stroke="none" stroke-width="1" fill="none" fill-rule="evenodd" sketch:type="MSPage">
        <g id="DASHBOARD" sketch:type="MSArtboardGroup" transform="translate(-651.000000, -1294.000000)" fill="#FFB637">
            <path d="M651.293681,1301.99953 L651.293681,1301.95559 C651.293681,1297.58323 654.792316,1294.00217 659.605552,1294.00217 C664.419063,1294.00217 667.873125,1297.53928 667.873125,1301.91164 L667.873125,1301.95559 C667.873125,1306.32768 664.374491,1309.90901 659.561255,1309.90901 C654.747744,1309.90928 651.293681,1306.37189 651.293681,1301.99953 L651.293681,1301.99953 Z M664.285347,1301.72826 L664.285347,1301.68432 C664.285347,1299.04755 662.32445,1296.8508 659.561255,1296.8508 C656.797785,1296.8508 654.88146,1299.00388 654.88146,1301.64037 L654.88146,1301.68432 C654.88146,1304.32081 659.605552,1308.62589 659.605552,1308.62589 C659.605552,1308.62589 664.285347,1304.36475 664.285347,1301.72826 Z M659.578588,1303.54606 C660.428465,1303.54606 661.117426,1302.86677 661.117426,1302.02883 C661.117426,1301.19089 660.428465,1300.51161 659.578588,1300.51161 C658.728712,1300.51161 658.039751,1301.19089 658.039751,1302.02883 C658.039751,1302.86677 658.728712,1303.54606 659.578588,1303.54606 Z" id="Shape-3" sketch:type="MSShapeGroup"></path>
        </g>
    </g>
</svg>