<?xml version="1.0" encoding="UTF-8" standalone="no"?>
<svg width="16px" height="16px" viewBox="0 0 16 16" version="1.1" xmlns="http://www.w3.org/2000/svg" xmlns:xlink="http://www.w3.org/1999/xlink" xmlns:sketch="http://www.bohemiancoding.com/sketch/ns">
    <!-- Generator: Sketch 3.0.4 (8053) - http://www.bohemiancoding.com/sketch -->
    <title>website</title>
    <desc>Created with Sketch.</desc>
    <defs></defs>
    <g id="Welcome" stroke="none" stroke-width="1" fill="none" fill-rule="evenodd" sketch:type="MSPage">
        <g id="website" sketch:type="MSArtboardGroup" fill="#FFFFFF">
            <path d="M8,16 C12.418278,16 16,12.418278 16,8 C16,3.581722 12.418278,0 8,0 C3.581722,0 0,3.581722 0,8 C0,12.418278 3.581722,16 8,16 Z M8,14 C11.3137085,14 14,11.3137085 14,8 C14,4.6862915 11.3137085,2 8,2 C4.6862915,2 2,4.6862915 2,8 C2,11.3137085 4.6862915,14 8,14 Z" id="Oval-15" sketch:type="MSShapeGroup"></path>
            <path d="M7.5,7.5 L7.5,1 L8.5,1 L8.5,7.5 L15,7.5 L15,8.5 L8.5,8.5 L8.5,15 L7.5,15 L7.5,8.5 L1,8.5 L1,7.5 L7.5,7.5 Z" id="Rectangle-93" sketch:type="MSShapeGroup"></path>
            <path d="M5.69719579,1.87023284 C4.3336173,3.18148855 3.52333902,5.19817481 3.52333902,8.03066407 C3.52333902,10.8646296 4.34583954,12.8823865 5.72919221,14.1935858 C6.57500071,14.9952783 7.42882356,15.3761312 8.02719628,15.4929116 L8.21874578,14.5114287 C8.12600509,14.4933291 7.9377238,14.4363385 7.68608713,14.3240944 C7.2553003,14.1319393 6.8224143,13.8519615 6.41711784,13.4678046 C5.23820051,12.3503776 4.52333902,10.5966807 4.52333902,8.03066407 C4.52333902,5.46317118 5.22838171,3.70840379 6.39033817,2.59103353 C6.78932468,2.2073568 7.21525039,1.92787381 7.63895683,1.73612796 C7.88613834,1.62426743 8.07081671,1.56755428 8.16131054,1.54963632 L7.96707935,0.568680539 C7.37534601,0.685844911 6.53193181,1.06752703 5.69719579,1.87023284 Z M8.03947167,15.4300136 L8.21874578,14.5114287 C8.15997852,14.4999595 8.06284776,14.4728739 7.9355429,14.4260086 C7.89640783,14.4373723 7.86389515,14.4453729 7.83868946,14.4503637 L8.03292065,15.4313195 C8.03510091,15.4308878 8.03728459,15.4304525 8.03947167,15.4300136 Z M8.0644571,1.5739914 C8.10359217,1.56262767 8.13610485,1.5546271 8.16131054,1.54963632 L7.96707935,0.568680539 C7.96489909,0.569112235 7.96271541,0.569547523 7.96052833,0.569986409 L7.78125422,1.48857131 C7.84002148,1.50004053 7.93715224,1.52712611 8.0644571,1.5739914 Z M10.3028042,14.1297672 C11.6663827,12.8185114 12.476661,10.8018252 12.476661,7.96933593 C12.476661,5.13537036 11.6541605,3.11761352 10.2708078,1.80641423 C9.42499929,1.00472169 8.57117644,0.623868784 7.97280372,0.50708836 L7.78125422,1.48857131 C7.87399491,1.5066709 8.0622762,1.56366154 8.31391287,1.67590562 C8.7446997,1.86806072 9.1775857,2.14803854 9.58288216,2.53219541 C10.7617995,3.64962237 11.476661,5.40331934 11.476661,7.96933593 C11.476661,10.5368288 10.7716183,12.2915962 9.60966183,13.4089665 C9.21067532,13.7926432 8.78474961,14.0721262 8.36104317,14.263872 C8.11386166,14.3757326 7.92918329,14.4324457 7.83868946,14.4503637 L8.03292065,15.4313195 C8.62465399,15.3141551 9.46806819,14.932473 10.3028042,14.1297672 Z" id="Path-120" sketch:type="MSShapeGroup"></path>
        </g>
    </g>
</svg>