<svg version="1.1" id="Calque_1" xmlns="http://www.w3.org/2000/svg" xmlns:xlink="http://www.w3.org/1999/xlink" x="0px" y="0px"
	 width="100%" height="100%" viewBox="0 0 298 14" enable-background="new 0 0 298 14" xml:space="preserve">
<g>
	<g>
		<path class="logotransition" fill="white" d="M0.354,0.52h5.13c4.135,0,6.991,2.838,6.991,6.54v0.038c0,3.702-2.856,6.577-6.991,6.577h-5.13V0.52z
			 M5.485,11.063c2.368,0,3.965-1.598,3.965-3.929V7.098c0-2.331-1.597-3.966-3.965-3.966H3.249v7.932H5.485z"/>
		<path class="logotransition" fill="white" d="M23.441,0.52h2.894v13.155h-2.894V0.52z"/>
		<path class="logotransition" fill="white" d="M37.297,7.135V7.098c0-3.74,2.913-6.804,6.897-6.804c2.368,0,3.796,0.639,5.168,1.804l-1.823,2.199
			c-1.015-0.846-1.917-1.334-3.439-1.334c-2.104,0-3.777,1.861-3.777,4.097v0.038c0,2.405,1.654,4.171,3.984,4.171
			c1.052,0,1.992-0.262,2.725-0.789V8.601h-2.913v-2.5h5.713v5.712c-1.353,1.147-3.214,2.087-5.619,2.087
			C40.116,13.9,37.297,11.024,37.297,7.135z"/>
		<path class="logotransition" fill="white" d="M61.004,0.52h2.894v13.155h-2.894V0.52z"/>
		<path class="logotransition" fill="white" d="M78.505,3.188h-4.003V0.52h10.9v2.668H81.4v10.487h-2.895V3.188z"/>
		<path class="logotransition" fill="white" d="M98.696,0.425h2.669l5.638,13.25h-3.025l-1.203-2.95h-5.563l-1.203,2.95h-2.951L98.696,0.425z
			 M101.74,8.169l-1.748-4.267l-1.748,4.267H101.74z"/>
		<path class="logotransition" fill="white" d="M117.291,0.52h2.894v10.524h6.559v2.631h-9.453V0.52z"/>
		<path class="logotransition" fill="white" d="M151.075,0.52h6.107c1.504,0,2.688,0.414,3.439,1.166c0.602,0.601,0.902,1.334,0.902,2.236v0.038
			c0,1.484-0.79,2.312-1.729,2.838c1.522,0.582,2.462,1.466,2.462,3.231v0.038c0,2.405-1.955,3.608-4.924,3.608h-6.258V0.52z
			 M156.562,5.838c1.278,0,2.086-0.414,2.086-1.391V4.41c0-0.865-0.676-1.354-1.897-1.354h-2.857v2.782H156.562z M157.333,11.138
			c1.277,0,2.049-0.451,2.049-1.428V9.672c0-0.883-0.658-1.429-2.143-1.429h-3.346v2.895H157.333z"/>
		<path class="logotransition" fill="white" d="M172.694,8.036V0.52h2.895v7.442c0,2.143,1.071,3.25,2.838,3.25s2.838-1.07,2.838-3.156V0.52h2.895v7.424
			c0,3.983-2.237,5.938-5.771,5.938C174.856,13.882,172.694,11.908,172.694,8.036z"/>
		<path class="logotransition" fill="white" d="M194.465,11.758l1.71-2.048c1.184,0.977,2.425,1.598,3.929,1.598c1.184,0,1.897-0.471,1.897-1.241v-0.038
			c0-0.732-0.452-1.107-2.65-1.672c-2.649-0.677-4.359-1.41-4.359-4.022V4.297c0-2.387,1.917-3.965,4.604-3.965
			c1.917,0,3.551,0.601,4.886,1.672l-1.503,2.18c-1.166-0.809-2.312-1.297-3.421-1.297c-1.108,0-1.691,0.507-1.691,1.146v0.038
			c0,0.865,0.563,1.146,2.837,1.729c2.67,0.696,4.174,1.654,4.174,3.947v0.037c0,2.613-1.993,4.078-4.83,4.078
			C198.055,13.862,196.043,13.167,194.465,11.758z"/>
		<path class="logotransition" fill="white" d="M215.653,0.52h2.895v5.206h5.336V0.52h2.895v13.155h-2.895V8.394h-5.336v5.281h-2.895V0.52z"/>
		<path class="logotransition" fill="white" d="M238.194,0.52h3.12l3.458,5.563l3.457-5.563h3.12v13.155h-2.876V5.086l-3.701,5.62h-0.076l-3.664-5.563
			v8.532h-2.838V0.52z"/>
		<path class="logotransition" fill="white" d="M267.276,0.425h2.669l5.638,13.25h-3.025l-1.203-2.95h-5.563l-1.203,2.95h-2.95L267.276,0.425z
			 M270.321,8.169l-1.748-4.267l-1.748,4.267H270.321z"/>
		<path class="logotransition" fill="white" d="M285.872,0.52h2.668l6.164,8.101V0.52h2.857v13.155h-2.463l-6.371-8.363v8.363h-2.855V0.52z"/>
	</g>
</g>
<g>
	<g>
		<path class="logotransition" fill="white" d="M139.399,3.915c-1.334,0-2.416,1.083-2.416,2.417c0,1.335,2.416,3.979,2.416,3.979
			s2.415-2.644,2.415-3.979C141.814,4.998,140.732,3.915,139.399,3.915z M139.399,7.51c-0.537,0-0.971-0.435-0.971-0.971
			s0.435-0.971,0.971-0.971c0.536,0,0.971,0.435,0.971,0.971S139.935,7.51,139.399,7.51z"/>
	</g>
</g>
</svg>
